<svg width="248" height="36" viewBox="0 0 248 36" fill="none" xmlns="http://www.w3.org/2000/svg">
<path d="M129.298 0.692383H113.788V35.3078H123.385V26.2583H129.298C138.556 26.2583 144.372 21.3627 144.372 13.5001C144.372 5.58799 138.556 0.692383 129.298 0.692383ZM128.716 18.544H123.385V8.40667H128.716C132.691 8.40667 134.678 10.2858 134.678 13.5001C134.678 16.6649 132.691 18.544 128.716 18.544Z" fill="#1C9DFC"/>
<path d="M172.745 35.3078H182.729L167.704 0.692383H158.253L143.276 35.3078H153.066L155.732 28.5825H170.079L172.745 35.3078ZM158.543 21.3627L162.906 10.2858L167.268 21.3627H158.543Z" fill="#1C9DFC"/>
<path d="M39.4536 35.3078L39.3567 0.692383H31.4563L19.8238 20.6704L7.90042 0.692383H0V35.3078H8.8698V17.4561L17.5457 31.8957H21.811L30.5354 16.9616L30.6323 35.3078H39.4536Z" fill="#2A2E33"/>
<path d="M72.3205 17.2583C75.2286 15.7254 76.8765 13.055 76.8765 9.74183C76.8765 4.40118 72.5143 0.692383 63.5961 0.692383H46.2442V35.3078H64.5654C73.6776 35.3078 78.5245 31.7968 78.5245 25.8133C78.5245 21.61 76.1495 18.6429 72.3205 17.2583ZM62.3359 7.76381C65.5348 7.76381 67.1828 8.90117 67.1828 11.077C67.1828 13.3023 65.5348 14.4396 62.3359 14.4396H55.7441V7.76381H62.3359ZM63.7899 28.2363H55.7441V21.2144H63.7899C67.0858 21.2144 68.8307 22.3517 68.8307 24.7253C68.8307 27.099 67.0858 28.2363 63.7899 28.2363Z" fill="#2A2E33"/>
<path d="M90.2437 35.3078H99.8405V8.45612H110.213V0.692383H79.8229V8.45612H90.2437V35.3078Z" fill="#2A2E33"/>
<path d="M201.893 36C208.145 36 213.186 33.6758 216.482 29.4725L210.375 23.8352C208.242 26.456 205.625 27.8901 202.378 27.8901C196.804 27.8901 192.926 23.9341 192.926 18C192.926 12.0659 196.804 8.10989 202.378 8.10989C205.625 8.10989 208.242 9.54395 210.375 12.1648L216.482 6.52747C213.186 2.32417 208.145 0 201.893 0C191.133 0 183.232 7.46703 183.232 18C183.232 28.533 191.133 36 201.893 36Z" fill="#1C9DFC"/>
<path d="M230.261 27.7418V21.4122H245.334V14.0935H230.261V8.25832H247.37V0.692383H220.761V35.3078H248V27.7418H230.261Z" fill="#1C9DFC"/>
</svg>
